<svg width="34" height="34" xmlns="http://www.w3.org/2000/svg">

 <g>
  <title>background</title>
  <rect fill="none" id="canvas_background" height="36" width="36" y="-1" x="-1"/>
 </g>
 <g>
  <title>Layer 1</title>
  <g stroke="null" id="outline">
   <g stroke="null" id="bg_1_">
    <path stroke="#000" stroke-width="0" id="svg_1" d="m27.943414,0.798484c1.375,0 2.67451,0.539216 3.655882,1.520588s1.520588,2.280882 1.520588,3.655882l0,22c0,1.375 -0.539216,2.67451 -1.520588,3.655882s-2.280882,1.520588 -3.655882,1.520588l-22,0c-1.375,0 -2.67451,-0.539216 -3.655882,-1.520588s-1.520588,-2.280882 -1.520588,-3.655882l0,-22c0,-1.375 0.539216,-2.67451 1.520588,-3.655882s2.280882,-1.520588 3.655882,-1.520588l22,0m0,-0.323529l-22,0c-3.025,0 -5.5,2.475 -5.5,5.5l0,22c0,3.025 2.475,5.5 5.5,5.5l22,0c3.025,0 5.5,-2.475 5.5,-5.5l0,-22c0,-3.025 -2.475,-5.5 -5.5,-5.5l0,0z" fill="#000"/>
   </g>
   <g stroke="null" id="B_2_">
    <path stroke="#000" stroke-width="0" id="svg_2" d="m9.410571,7.646524l9.355392,0c1.72549,0 3.111275,0.393627 4.151961,1.186275s1.563726,1.984314 1.563726,3.585784c0,0.970588 -0.237255,1.80098 -0.711765,2.491176c-0.47451,0.690196 -1.153922,1.229412 -2.038235,1.606863l0,0.053922c1.186275,0.253431 2.086765,0.814216 2.696078,1.682353c0.609314,0.873529 0.916667,1.962745 0.916667,3.278431c0,0.754902 -0.134804,1.461275 -0.404412,2.113726c-0.269608,0.657843 -0.690196,1.22402 -1.267157,1.698529s-1.310294,0.851961 -2.210784,1.132353s-1.968137,0.420588 -3.208333,0.420588l-8.843137,0l0,-19.25l0,0zm3.370098,8.061275l5.5,0c0.808824,0 1.482843,-0.226471 2.022059,-0.690196s0.808824,-1.121569 0.808824,-1.984314c0,-0.970588 -0.242647,-1.655392 -0.727941,-2.04902s-1.186275,-0.593137 -2.102941,-0.593137l-5.5,0l0,5.316667l0,0zm0,8.438726l5.958333,0c1.02451,0 1.822549,-0.264216 2.383333,-0.798039c0.566176,-0.528431 0.851961,-1.283333 0.851961,-2.253922c0,-0.954412 -0.280392,-1.682353 -0.851961,-2.2s-1.358824,-0.765686 -2.383333,-0.765686l-5.958333,0l0,6.017647z" fill="#000"/>
   </g>
  </g>
 </g>
</svg>
