<svg height="512pt" viewBox="-52 0 512 512" width="512pt" xmlns="http://www.w3.org/2000/svg"><path d="m7.890625 240.976562h182.132813v60.925782h-182.132813zm0 0" fill="#fff68e"/><path d="m224.632812 240.976562h171.683594v60.925782h-171.683594zm0 0" fill="#fff68e"/><path d="m7.890625 104.996094h388.425781v102.652344h-388.425781zm0 0" fill="#9ee2f8"/><path d="m7.890625 437.125h74.246094v64.75h-74.246094zm0 0" fill="#b6baf2"/><path d="m116.734375 437.125h73.289063v64.75h-73.289063zm0 0" fill="#b6baf2"/><g fill="#a6ffb5"><path d="m224.632812 437.125h171.683594v64.75h-171.683594zm0 0"/><path d="m145.875 10.125-34.28125 60.453125h47.210938l34.285156-60.453125zm0 0"/><path d="m7.890625 10.125v60.453125h9.273437l34.285157-60.453125zm0 0"/><path d="m98.660156 10.125-34.28125 60.453125h47.214844l34.28125-60.453125zm0 0"/><path d="m193.089844 10.125-34.285156 60.453125h47.214843l34.28125-60.453125zm0 0"/><path d="m51.449219 10.125-34.285157 60.453125h47.214844l34.28125-60.453125zm0 0"/><path d="m396.316406 10.125h-14.375l-34.28125 60.453125h48.65625zm0 0"/><path d="m240.300781 10.125-34.28125 60.453125h47.214844l34.28125-60.453125zm0 0"/><path d="m334.730469 10.125-34.285157 60.453125h47.214844l34.28125-60.453125zm0 0"/><path d="m287.515625 10.125-34.28125 60.453125h47.210937l34.285157-60.453125zm0 0"/></g><path d="m10.164062 312.027344h182.136719c5.589844 0 10.121094-4.535156 10.121094-10.125v-60.925782c0-5.589843-4.53125-10.125-10.121094-10.125h-182.136719c-5.59375 0-10.1249995 4.535157-10.1249995 10.125v60.925782c0 5.59375 4.5312495 10.125 10.1249995 10.125zm10.125-60.925782h161.886719v40.679688h-161.886719zm0 0"/><path d="m408.714844 301.902344v-60.925782c0-5.589843-4.53125-10.125-10.125-10.125h-171.683594c-5.589844 0-10.121094 4.535157-10.121094 10.125v60.925782c0 5.589844 4.53125 10.125 10.121094 10.125h171.683594c5.59375 0 10.125-4.53125 10.125-10.125zm-20.25-10.125h-151.433594v-40.675782h151.433594zm0 0"/><path d="m10.164062 346.386719h345.679688c5.589844 0 10.121094-4.535157 10.121094-10.125 0-5.589844-4.53125-10.125-10.121094-10.125h-345.679688c-5.59375 0-10.1249995 4.535156-10.1249995 10.125 0 5.589843 4.5312495 10.125 10.1249995 10.125zm0 0"/><path d="m398.589844 360.496094h-388.425782c-5.59375 0-10.1249995 4.53125-10.1249995 10.121094 0 5.59375 4.5312495 10.125 10.1249995 10.125h388.425782c5.59375 0 10.125-4.53125 10.125-10.125 0-5.589844-4.53125-10.121094-10.125-10.121094zm0 0"/><path d="m398.589844 394.851562h-346.355469c-5.59375 0-10.125 4.535157-10.125 10.125 0 5.589844 4.53125 10.125 10.125 10.125h346.355469c5.59375 0 10.125-4.535156 10.125-10.125 0-5.589843-4.53125-10.125-10.125-10.125zm0 0"/><path d="m84.410156 427h-74.246094c-5.59375 0-10.1249995 4.535156-10.1249995 10.125v64.75c0 5.589844 4.5312495 10.125 10.1249995 10.125h74.246094c5.59375 0 10.125-4.535156 10.125-10.125v-64.75c0-5.589844-4.53125-10.125-10.125-10.125zm-10.125 64.75h-53.996094v-44.5h53.996094zm0 0"/><path d="m192.300781 427h-73.289062c-5.59375 0-10.125 4.535156-10.125 10.125v64.75c0 5.589844 4.53125 10.125 10.125 10.125h73.289062c5.589844 0 10.121094-4.535156 10.121094-10.125v-64.75c0-5.589844-4.53125-10.125-10.121094-10.125zm-10.125 64.75h-53.039062v-44.5h53.039062zm0 0"/><path d="m398.589844 427h-171.683594c-5.589844 0-10.121094 4.535156-10.121094 10.125v64.75c0 5.589844 4.53125 10.125 10.121094 10.125h171.683594c5.59375 0 10.125-4.535156 10.125-10.125v-64.75c0-5.589844-4.53125-10.125-10.125-10.125zm-10.125 64.75h-151.433594v-44.5h151.433594zm0 0"/><path d="m10.164062 80.703125h388.429688c5.589844 0 10.121094-4.535156 10.121094-10.125v-60.453125c0-5.589844-4.53125-10.125-10.121094-10.125h-388.429688c-5.59375 0-10.1249995 4.535156-10.1249995 10.125v60.453125c0 5.589844 4.5312495 10.125 10.1249995 10.125zm96.671876-60.453125h23.933593l-16.234375 28.628906-6.566406 11.574219h-23.933594zm94.425781 0h23.933593l-16.234374 28.628906-6.5625 11.574219h-23.9375zm94.425781 0h23.9375l-16.238281 28.628906-6.5625 11.574219h-23.9375zm92.777344 40.203125h-21.148438l21.148438-37.296875zm-44.425782 0h-23.9375l16.234376-28.628906 6.566406-11.574219h23.933594zm-94.429687 0h-23.933594l16.234375-28.628906 6.5625-11.574219h23.9375zm-94.425781 0h-23.9375l16.238281-28.628906 6.5625-11.574219h23.9375zm-94.425782 0h-23.9375l16.234376-28.628906 6.566406-11.574219h23.933594zm-24.414062-40.203125-16.054688 28.3125v-28.3125zm0 0"/><path d="m.0820312 208.46875c.0117188.160156.0312498.324219.0507808.484375.019532.160156.042969.316406.074219.472656.035157.199219.078125.398438.121094.59375.019531.070313.027344.144531.046875.214844.019531.0625.039062.125.058594.1875.046875.15625.089844.308594.144531.460937.050781.148438.105469.296876.160156.445313.054688.132813.105469.269531.164063.398437.078125.179688.164062.351563.253906.527344.046875.09375.089844.1875.140625.28125.300781.546875.648437 1.058594 1.039063 1.53125.027343.035156.058593.070313.085937.101563.167969.199219.339844.390625.523437.574219.058594.0625.125.121093.1875.183593.152344.148438.308594.289063.472657.429688.082031.070312.164062.136719.246093.203125.152344.121094.308594.238281.464844.347656.097656.070312.191406.136719.285156.199219.164063.109375.332032.207031.503907.308593.09375.050782.183593.113282.28125.164063.253906.136719.515625.261719.78125.375.101562.042969.210937.082031.316406.121094.179687.070312.359375.140625.542969.199219.113281.039062.230468.070312.34375.101562.195312.054688.390625.105469.585937.152344.101563.019531.203125.042968.304688.0625.242187.046875.484375.082031.730469.109375.0625.007812.125.019531.1875.023437.324218.03125.648437.054688.980468.054688.011719 0 .027344-.003906.042969-.003906h388.347656c.015625 0 .03125.003906.046875.003906.328125 0 .65625-.023438.980469-.054688.0625-.003906.125-.015625.1875-.023437.242187-.027344.488281-.0625.730469-.109375.101562-.019532.203125-.042969.304687-.0625.195313-.046875.390625-.097656.582031-.152344.117188-.03125.230469-.0625.34375-.101562.183594-.058594.367188-.128907.546876-.199219.105468-.039063.210937-.078125.316406-.121094.265625-.113281.523437-.238281.777344-.375.097656-.050781.191406-.113281.285156-.164063.167968-.101562.335937-.199218.5-.308593.097656-.0625.191406-.128907.285156-.199219.160156-.109375.316406-.226562.46875-.347656.082031-.066406.164062-.132813.246094-.203125.164062-.136719.320312-.28125.472656-.429688.0625-.0625.125-.121093.1875-.183593.179688-.183594.351562-.375.519531-.574219.03125-.03125.0625-.066407.089844-.101563.386719-.472656.734375-.984375 1.039063-1.53125.050781-.09375.09375-.1875.140624-.28125.089844-.171875.175782-.347656.253907-.527344.058593-.128906.109375-.265624.164062-.398437.054688-.148437.109375-.296875.160157-.445313.050781-.152343.097656-.304687.144531-.460937.015625-.0625.039062-.125.058593-.1875.015626-.070313.027344-.144531.042969-.214844.046875-.195312.089844-.394531.125-.59375.027344-.15625.050781-.3125.074219-.472656.019531-.160156.039062-.324219.050781-.484375.015625-.199219.023438-.398438.03125-.59375 0-.078125.011719-.152344.011719-.226562v-102.652344c0-.078125-.011719-.148438-.011719-.226563-.007812-.195312-.015625-.394531-.03125-.59375-.011719-.164062-.03125-.324219-.050781-.484375-.023438-.160156-.046875-.316406-.074219-.472656-.035156-.203125-.078125-.398438-.125-.59375-.015625-.070312-.027343-.144531-.042969-.214844-.015624-.054687-.039062-.105468-.054687-.160156-.054687-.207031-.121094-.410156-.191406-.609375-.046875-.125-.089844-.246094-.136719-.367187-.070312-.179688-.148438-.355469-.230469-.53125-.0625-.136719-.125-.273438-.195312-.40625-.074219-.144532-.15625-.289063-.238281-.429688-.089844-.152344-.179688-.300781-.273438-.449219-.078125-.117187-.160156-.226562-.238281-.34375-.113281-.15625-.226563-.308593-.34375-.457031-.082031-.101562-.167969-.199219-.25-.296875-.128907-.144531-.261719-.292969-.398438-.433594-.089843-.09375-.1875-.183593-.285156-.273437-.136719-.132813-.273437-.261719-.417969-.382813-.109375-.09375-.226562-.183593-.34375-.269531-.136718-.109375-.273437-.214844-.414062-.3125-.132813-.09375-.269532-.175781-.40625-.261719-.132813-.085937-.269532-.171875-.40625-.25-.148438-.082031-.300782-.160156-.457032-.234375-.136718-.070312-.273437-.136718-.414062-.199218-.152344-.070313-.308594-.128907-.46875-.1875-.152344-.0625-.304688-.121094-.457031-.171876-.148438-.046874-.292969-.085937-.441407-.128906-.179687-.050781-.355468-.097656-.539062-.136718-.128906-.03125-.253906-.050782-.382812-.074219-.210938-.039063-.421876-.074219-.632813-.097657-.113281-.011718-.222656-.023437-.335937-.03125-.226563-.019531-.457032-.03125-.6875-.035156-.050782 0-.101563-.007812-.148438-.007812h-388.429688c-.050781 0-.101562.007812-.148437.007812-.234375.003906-.464844.015625-.691406.035156-.109375.007813-.222657.019532-.332031.03125-.214844.023438-.425782.058594-.640626.097657-.125.019531-.25.042969-.371093.070312-.1875.042969-.371094.089844-.554688.144531-.140625.039063-.285156.078126-.421875.125-.164062.050782-.320312.113282-.480468.175782-.148438.054687-.300782.113281-.445313.179687-.152344.066407-.296875.136719-.441406.210938s-.289063.144531-.429688.222656c-.148437.082031-.289062.171875-.429687.265625-.128906.078125-.261719.160156-.382813.246094-.152343.105468-.296875.214844-.441406.328125-.105469.082031-.214844.167969-.320313.253906-.148437.128906-.292968.261719-.4375.398437-.089843.085938-.179687.167969-.265624.257813-.144532.144531-.277344.296875-.410157.449219-.078125.09375-.160156.183594-.238281.28125-.121094.152344-.238281.308594-.351562.46875-.082032.109375-.160157.21875-.234376.335937-.097656.144531-.1875.300781-.277343.453125-.078125.140625-.160157.28125-.234375.421875-.070313.136719-.136719.273438-.199219.410157-.082031.175781-.160156.351562-.230469.53125-.046875.117187-.089844.242187-.132812.363281-.070313.203125-.136719.40625-.195313.609375-.015625.054687-.035156.109375-.050781.164062-.019531.070313-.027344.140625-.046875.214844-.046875.195312-.089844.390625-.125.589844-.027344.160156-.050781.316406-.070313.476562-.023437.160156-.039062.320313-.054687.484375-.015625.199219-.0234375.394531-.0273438.59375-.0039062.074219-.0117187.148438-.0117187.226563v102.652344c0 .074218.0078125.148437.0117187.226562.0039063.195312.015625.394531.03125.59375zm388.3828128-13.96875-144.464844-38.175781 144.464844-38.179688zm-67.808594 3.023438h-232.558594l116.28125-30.730469zm-116.277344-51.671876-116.28125-30.730468h232.558594zm-39.625 10.46875-144.464844 38.179688v-76.359375zm0 0"/><path d="m389.238281 340.136719c1.589844 3.949219 5.386719 6.34375 9.394531 6.34375 1.257813 0 2.539063-.238281 3.78125-.738281 5.183594-2.089844 7.695313-7.988282 5.605469-13.175782l-.074219-.183594c-2.09375-5.1875-7.988281-7.695312-13.175781-5.605468-5.1875 2.09375-7.695312 7.992187-5.605469 13.175781zm0 0"/><path d="m.816406 409.535156c1.597656 3.9375 5.386719 6.324219 9.386719 6.324219 1.265625 0 2.554687-.238281 3.800781-.742187 5.183594-2.101563 7.679688-8.003907 5.578125-13.1875l-.074219-.183594c-2.097656-5.179688-8.003906-7.679688-13.183593-5.578125-5.183594 2.101562-7.679688 8.003906-5.582031 13.183593zm0 0"/></svg>